<svg width="25" height="33" viewBox="0 0 25 33" fill="none" xmlns="http://www.w3.org/2000/svg">
    <path
        d="M1.26558 0.62991C0.85443 0.790518 0.372608 1.24664 0.160607 1.68349L0 2.00471V16.4915V30.9782L0.231274 31.3958C0.488246 31.8648 0.912248 32.231 1.3748 32.3916C1.7988 32.5329 16.1185 32.5393 16.9344 32.3916C18.7653 32.0768 20.2815 31.3059 21.592 30.0339C22.3308 29.3143 22.8319 28.6526 23.2816 27.7918C24.8363 24.8173 24.5536 21.2133 22.5492 18.4894C22.3822 18.2646 22.0032 17.8277 21.7077 17.5194C21.0845 16.8705 20.9175 16.5557 20.911 16.0161C20.911 15.425 21.0138 15.1873 21.5663 14.5513C22.2409 13.774 22.5878 13.2793 22.9347 12.6048C23.7891 10.9345 24.0654 8.80803 23.6606 7.04777C22.8962 3.69429 20.2558 1.16955 16.9023 0.591366C16.414 0.507849 15.3026 0.495003 8.9683 0.501427C1.74098 0.501427 1.59965 0.501425 1.26558 0.62991ZM18.0201 14.9175C18.367 15.0974 18.4056 15.2195 18.4056 16.1703C18.4056 17.1467 18.3606 17.3009 18.0201 17.468C17.8081 17.5772 17.3199 17.5836 10.5679 17.5836C4.95955 17.5836 3.30851 17.5643 3.18645 17.5001C3.10293 17.4615 2.96802 17.3395 2.89735 17.2431C2.77529 17.0761 2.76244 16.9733 2.76244 16.2024C2.76244 15.4315 2.77529 15.3287 2.89735 15.1616C2.96802 15.0653 3.10293 14.9432 3.18645 14.9047C3.30851 14.8404 4.96597 14.8212 10.5872 14.8212C16.8894 14.8212 17.8595 14.834 18.0201 14.9175Z"
        fill="currentColor" />
</svg>