<svg width="64" height="64" viewBox="0 0 64 64" fill="none" xmlns="http://www.w3.org/2000/svg">
    <path
        d="M15.1469 17.554C15.1224 17.5646 15.0804 17.6175 15.0524 17.6704C15.0069 17.7622 14.9999 19.551 14.9999 32.3126C14.9999 47.8826 14.9894 47.0076 15.1574 47.0747C15.2589 47.1135 35.7339 47.0994 36.1924 47.0605C38.9749 46.8206 41.6524 45.9986 43.7349 44.739C45.7929 43.497 47.3609 41.8176 48.4214 39.7218C49.0864 38.4093 49.5694 36.8216 49.8039 35.1704C49.9439 34.1931 49.9789 33.6498 49.9789 32.3126C49.9789 30.9754 49.9439 30.432 49.8039 29.4547C49.1949 25.182 47.1369 21.9396 43.7349 19.8862C41.6524 18.6266 38.9749 17.8045 36.1924 17.5646C35.7619 17.5293 15.2379 17.5152 15.1469 17.554ZM31.0474 22.7052C31.2539 24.0177 31.5409 24.9492 32.0974 26.0852C32.6259 27.1719 33.2349 28.0364 34.0714 28.9043C35.0129 29.8746 35.9124 30.5343 37.1024 31.1341C38.0894 31.6246 38.9854 31.9315 40.0074 32.1185C40.6549 32.2349 40.6199 32.2244 40.6199 32.3126C40.6199 32.4008 40.6549 32.3902 40.0074 32.5066C38.4114 32.7995 36.7629 33.5192 35.4609 34.493C34.0224 35.5656 32.8779 36.9416 32.0974 38.5399C31.5409 39.676 31.2539 40.6074 31.0474 41.9164C31.0299 42.0258 31.0124 42.0505 30.9459 42.0505C30.8724 42.0505 30.8654 42.0222 30.8059 41.6518C30.7219 41.1261 30.5119 40.3005 30.3194 39.7465C29.1889 36.5288 26.6059 33.9814 23.3754 32.8912C22.8154 32.7042 22.2134 32.5525 21.6884 32.4678C21.3104 32.4078 21.2999 32.4043 21.2999 32.3126C21.2999 32.2208 21.3104 32.2173 21.6884 32.1573C24.6704 31.6775 27.4319 29.8675 29.1259 27.2848C29.9764 25.9829 30.5749 24.4517 30.8059 22.9698C30.8654 22.6029 30.8724 22.5747 30.9459 22.5747C31.0124 22.5747 31.0299 22.5994 31.0474 22.7052Z"
        fill="currentColor" />
</svg>