<svg width="48" height="48" viewBox="0 0 48 48" fill="none" xmlns="http://www.w3.org/2000/svg">
    <style>
        @media (prefers-color-scheme: dark) {
        path {
        fill: white;
        }
        }
        @media (prefers-color-scheme: light) {
        path {
        fill: black;
        }
        }
</style>
    <path
        d="M9.66818 3.08141C9.12623 3.2931 8.49114 3.89433 8.2117 4.47015L8 4.89355V23.9887V43.0839L8.30485 43.6343C8.64356 44.2524 9.20244 44.7351 9.81213 44.9468C10.371 45.1331 29.246 45.1416 30.3214 44.9468C32.7348 44.5319 34.7332 43.5157 36.4607 41.8391C37.4345 40.8907 38.095 40.0185 38.6877 38.8838C40.737 34.9631 40.3644 30.2126 37.7224 26.6222C37.5022 26.3259 37.0026 25.75 36.6131 25.3436C35.7917 24.4883 35.5715 24.0734 35.5631 23.3621C35.5631 22.583 35.6986 22.2697 36.4268 21.4314C37.3159 20.4068 37.7732 19.7547 38.2305 18.8656C39.3567 16.664 39.7208 13.8611 39.1874 11.5409C38.1797 7.12061 34.6994 3.79271 30.2791 3.0306C29.6355 2.92052 28.1706 2.90358 19.8212 2.91205C10.2948 2.91205 10.1085 2.91205 9.66818 3.08141ZM31.7525 21.9141C32.2098 22.1512 32.2606 22.3121 32.2606 23.5653C32.2606 24.8524 32.2013 25.0557 31.7525 25.2758C31.4731 25.4198 30.8295 25.4282 21.9297 25.4282C14.5372 25.4282 12.361 25.4028 12.2001 25.3182C12.09 25.2674 11.9122 25.1065 11.819 24.9795C11.6581 24.7593 11.6412 24.6238 11.6412 23.6076C11.6412 22.5915 11.6581 22.456 11.819 22.2358C11.9122 22.1088 12.09 21.9479 12.2001 21.8971C12.361 21.8124 14.5457 21.787 21.9551 21.787C30.2622 21.787 31.5408 21.804 31.7525 21.9141Z"
        fill="currentColor" />
</svg>