<svg width="29" height="28" viewBox="0 0 29 28" fill="none" xmlns="http://www.w3.org/2000/svg">
    <path
        d="M21.5661 7.19497C20.1889 6.55059 18.732 6.09273 17.2337 5.8335C17.0471 6.17089 16.8291 6.62469 16.6787 6.98571C15.0633 6.74281 13.4628 6.74281 11.8772 6.98571C11.7269 6.62477 11.5039 6.17089 11.3156 5.8335C9.81588 6.09285 8.35767 6.55188 6.97982 7.19833C4.23801 11.3416 3.49472 15.3819 3.86632 19.365C5.68487 20.7231 7.44723 21.5481 9.1799 22.0879C9.61051 21.4957 9.99116 20.8688 10.3179 20.2136C9.69581 19.9767 9.09608 19.6849 8.52586 19.3414C8.67592 19.2302 8.82245 19.1143 8.96522 18.9939C12.4205 20.61 16.1749 20.61 19.5891 18.9939C19.7325 19.1135 19.879 19.2294 20.0284 19.3414C19.4572 19.6858 18.8564 19.9782 18.233 20.2153C18.5616 20.8732 18.9416 21.5007 19.371 22.0895C21.1054 21.5498 22.8694 20.7248 24.6879 19.365C25.124 14.7477 23.9431 10.7445 21.5661 7.19497ZM10.7887 16.9155C9.75141 16.9155 8.90074 15.9471 8.90074 14.7679C8.90074 13.5887 9.73328 12.6187 10.7887 12.6187C11.8442 12.6187 12.6948 13.587 12.6766 14.7679C12.6783 15.9471 11.8442 16.9155 10.7887 16.9155ZM17.7655 16.9155C16.7282 16.9155 15.8777 15.9471 15.8777 14.7679C15.8777 13.5887 16.7101 12.6187 17.7655 12.6187C18.821 12.6187 19.6716 13.587 19.6535 14.7679C19.6535 15.9471 18.821 16.9155 17.7655 16.9155Z"
        fill="currentColor" />
</svg>