<svg width="29" height="28" viewBox="0 0 29 28" fill="none" xmlns="http://www.w3.org/2000/svg">
    <path
        d="M14.2772 5C9.30466 5 5.27716 9.0275 5.27716 14C5.27614 15.8893 5.87009 17.731 6.97476 19.2638C8.07942 20.7966 9.63869 21.9426 11.4314 22.5392C11.8814 22.6175 12.0497 22.3475 12.0497 22.1108C12.0497 21.8975 12.038 21.1892 12.038 20.435C9.77716 20.8517 9.19216 19.8842 9.01216 19.3775C8.91046 19.1192 8.47216 18.32 8.08966 18.1067C7.77466 17.9375 7.32466 17.5217 8.07796 17.51C8.78716 17.4983 9.29296 18.1625 9.46216 18.4325C10.2722 19.7933 11.5655 19.4108 12.083 19.175C12.1622 18.59 12.398 18.1958 12.6572 17.9708C10.6547 17.7458 8.56216 16.97 8.56216 13.5275C8.56216 12.5483 8.91046 11.7392 9.48466 11.1083C9.39466 10.8833 9.07966 9.9617 9.57466 8.7233C9.57466 8.7233 10.328 8.4875 12.0497 9.6467C12.7823 9.44335 13.5393 9.34101 14.2997 9.3425C15.0647 9.3425 15.8297 9.4433 16.5497 9.6458C18.2705 8.4758 19.0247 8.7242 19.0247 8.7242C19.5197 9.9617 19.2047 10.8842 19.1147 11.1092C19.688 11.7392 20.0372 12.5375 20.0372 13.5275C20.0372 16.9817 17.9339 17.7467 15.9314 17.9717C16.2572 18.2525 16.5389 18.7925 16.5389 19.6367C16.5389 20.84 16.5272 21.8075 16.5272 22.1117C16.5272 22.3475 16.6964 22.6283 17.1464 22.5383C18.9329 21.9351 20.4853 20.7869 21.5851 19.2552C22.6849 17.7236 23.2766 15.8856 23.2772 14C23.2772 9.0275 19.2497 5 14.2772 5Z"
        fill="currentColor" />
</svg>