<svg width="110" height="13" fill="none" xmlns="http://www.w3.org/2000/svg">
    <mask id="a" fill="currentColor">
        <path
            d="M8.755 11.873a5.857 5.857 0 0 1-2.556.576 5.726 5.726 0 0 1-2.97-.81A5.967 5.967 0 0 1 .277 6.455c0-1.08.264-2.076.792-2.988a5.967 5.967 0 0 1 2.16-2.178A5.726 5.726 0 0 1 6.2.479c.828 0 1.62.174 2.376.522.768.336 1.44.816 2.016 1.44l-.63.558a5.07 5.07 0 0 0-1.71-1.26 4.827 4.827 0 0 0-2.052-.45c-.924 0-1.776.234-2.556.702a5.185 5.185 0 0 0-1.872 1.872 5.104 5.104 0 0 0-.684 2.592c0 .936.228 1.8.684 2.592a5.33 5.33 0 0 0 1.872 1.89c.78.456 1.632.684 2.556.684.768 0 1.494-.168 2.178-.504a5.205 5.205 0 0 0 1.782-1.404l.648.504a5.963 5.963 0 0 1-2.052 1.656ZM21.667 11.657a5.825 5.825 0 0 1-2.97.792 5.825 5.825 0 0 1-2.97-.792 5.967 5.967 0 0 1-2.952-5.184c0-1.08.264-2.076.792-2.988a5.79 5.79 0 0 1 2.16-2.178 5.726 5.726 0 0 1 2.97-.81c1.068 0 2.058.27 2.97.81a5.79 5.79 0 0 1 2.16 2.178c.528.912.792 1.908.792 2.988a5.956 5.956 0 0 1-2.952 5.184Zm-.414-9.63a4.877 4.877 0 0 0-2.556-.702c-.924 0-1.776.234-2.556.702a5.185 5.185 0 0 0-1.872 1.872 5.008 5.008 0 0 0-.684 2.574c0 .936.228 1.8.684 2.592a5.378 5.378 0 0 0 1.872 1.872c.78.456 1.632.684 2.556.684.924 0 1.776-.228 2.556-.684a5.23 5.23 0 0 0 1.854-1.872 5.104 5.104 0 0 0 .684-2.592c0-.936-.228-1.794-.684-2.574a5.046 5.046 0 0 0-1.854-1.872ZM39.302 12.323h-.81V3.071l-5.184 7.398-5.256-7.416v9.27h-.81V.479l6.066 8.568L39.302.479v11.844ZM54.841 12.323h-.81V3.071l-5.184 7.398-5.256-7.416v9.27h-.81V.479l6.066 8.568L54.841.479v11.844ZM64.319 12.107a4.396 4.396 0 0 1-1.729.342 4.438 4.438 0 0 1-1.71-.342 4.597 4.597 0 0 1-1.44-1.008 4.242 4.242 0 0 1-.971-1.44 4.749 4.749 0 0 1-.325-1.746V.623h.81v7.29c0 .504.09.984.27 1.44.193.456.457.852.793 1.188a3.8 3.8 0 0 0 1.188.81c.444.18.906.27 1.386.27.492 0 .96-.09 1.404-.27a3.8 3.8 0 0 0 1.188-.81c.335-.336.593-.732.773-1.188.192-.456.288-.936.288-1.44V.623h.81v7.29c0 .612-.114 1.194-.341 1.746a4.032 4.032 0 0 1-.954 1.44c-.42.432-.9.768-1.44 1.008ZM79.271 12.521l-8.1-9.702v9.504h-.81V.479l8.1 9.684V.623h.81v11.898ZM83.744 12.323h-.81V.623h.81v11.7ZM96.58.623v.828h-4.626v10.872h-.828V1.451h-4.644V.623H96.58ZM104.013 7.391l4.608-6.768h.972l-5.184 7.65v4.05h-.81v-4.05L98.415.623h.972l4.626 6.768Z" />
    </mask>
    <path
        d="M8.755 11.873a5.857 5.857 0 0 1-2.556.576 5.726 5.726 0 0 1-2.97-.81A5.967 5.967 0 0 1 .277 6.455c0-1.08.264-2.076.792-2.988a5.967 5.967 0 0 1 2.16-2.178A5.726 5.726 0 0 1 6.2.479c.828 0 1.62.174 2.376.522.768.336 1.44.816 2.016 1.44l-.63.558a5.07 5.07 0 0 0-1.71-1.26 4.827 4.827 0 0 0-2.052-.45c-.924 0-1.776.234-2.556.702a5.185 5.185 0 0 0-1.872 1.872 5.104 5.104 0 0 0-.684 2.592c0 .936.228 1.8.684 2.592a5.33 5.33 0 0 0 1.872 1.89c.78.456 1.632.684 2.556.684.768 0 1.494-.168 2.178-.504a5.205 5.205 0 0 0 1.782-1.404l.648.504a5.963 5.963 0 0 1-2.052 1.656ZM21.667 11.657a5.825 5.825 0 0 1-2.97.792 5.825 5.825 0 0 1-2.97-.792 5.967 5.967 0 0 1-2.952-5.184c0-1.08.264-2.076.792-2.988a5.79 5.79 0 0 1 2.16-2.178 5.726 5.726 0 0 1 2.97-.81c1.068 0 2.058.27 2.97.81a5.79 5.79 0 0 1 2.16 2.178c.528.912.792 1.908.792 2.988a5.956 5.956 0 0 1-2.952 5.184Zm-.414-9.63a4.877 4.877 0 0 0-2.556-.702c-.924 0-1.776.234-2.556.702a5.185 5.185 0 0 0-1.872 1.872 5.008 5.008 0 0 0-.684 2.574c0 .936.228 1.8.684 2.592a5.378 5.378 0 0 0 1.872 1.872c.78.456 1.632.684 2.556.684.924 0 1.776-.228 2.556-.684a5.23 5.23 0 0 0 1.854-1.872 5.104 5.104 0 0 0 .684-2.592c0-.936-.228-1.794-.684-2.574a5.046 5.046 0 0 0-1.854-1.872ZM39.302 12.323h-.81V3.071l-5.184 7.398-5.256-7.416v9.27h-.81V.479l6.066 8.568L39.302.479v11.844ZM54.841 12.323h-.81V3.071l-5.184 7.398-5.256-7.416v9.27h-.81V.479l6.066 8.568L54.841.479v11.844ZM64.319 12.107a4.396 4.396 0 0 1-1.729.342 4.438 4.438 0 0 1-1.71-.342 4.597 4.597 0 0 1-1.44-1.008 4.242 4.242 0 0 1-.971-1.44 4.749 4.749 0 0 1-.325-1.746V.623h.81v7.29c0 .504.09.984.27 1.44.193.456.457.852.793 1.188a3.8 3.8 0 0 0 1.188.81c.444.18.906.27 1.386.27.492 0 .96-.09 1.404-.27a3.8 3.8 0 0 0 1.188-.81c.335-.336.593-.732.773-1.188.192-.456.288-.936.288-1.44V.623h.81v7.29c0 .612-.114 1.194-.341 1.746a4.032 4.032 0 0 1-.954 1.44c-.42.432-.9.768-1.44 1.008ZM79.271 12.521l-8.1-9.702v9.504h-.81V.479l8.1 9.684V.623h.81v11.898ZM83.744 12.323h-.81V.623h.81v11.7ZM96.58.623v.828h-4.626v10.872h-.828V1.451h-4.644V.623H96.58ZM104.013 7.391l4.608-6.768h.972l-5.184 7.65v4.05h-.81v-4.05L98.415.623h.972l4.626 6.768Z"
        fill="currentColor" />
    <path
        d="M8.755 11.873a5.857 5.857 0 0 1-2.556.576 5.726 5.726 0 0 1-2.97-.81A5.967 5.967 0 0 1 .277 6.455c0-1.08.264-2.076.792-2.988a5.967 5.967 0 0 1 2.16-2.178A5.726 5.726 0 0 1 6.2.479c.828 0 1.62.174 2.376.522.768.336 1.44.816 2.016 1.44l-.63.558a5.07 5.07 0 0 0-1.71-1.26 4.827 4.827 0 0 0-2.052-.45c-.924 0-1.776.234-2.556.702a5.185 5.185 0 0 0-1.872 1.872 5.104 5.104 0 0 0-.684 2.592c0 .936.228 1.8.684 2.592a5.33 5.33 0 0 0 1.872 1.89c.78.456 1.632.684 2.556.684.768 0 1.494-.168 2.178-.504a5.205 5.205 0 0 0 1.782-1.404l.648.504a5.963 5.963 0 0 1-2.052 1.656ZM21.667 11.657a5.825 5.825 0 0 1-2.97.792 5.825 5.825 0 0 1-2.97-.792 5.967 5.967 0 0 1-2.952-5.184c0-1.08.264-2.076.792-2.988a5.79 5.79 0 0 1 2.16-2.178 5.726 5.726 0 0 1 2.97-.81c1.068 0 2.058.27 2.97.81a5.79 5.79 0 0 1 2.16 2.178c.528.912.792 1.908.792 2.988a5.956 5.956 0 0 1-2.952 5.184Zm-.414-9.63a4.877 4.877 0 0 0-2.556-.702c-.924 0-1.776.234-2.556.702a5.185 5.185 0 0 0-1.872 1.872 5.008 5.008 0 0 0-.684 2.574c0 .936.228 1.8.684 2.592a5.378 5.378 0 0 0 1.872 1.872c.78.456 1.632.684 2.556.684.924 0 1.776-.228 2.556-.684a5.23 5.23 0 0 0 1.854-1.872 5.104 5.104 0 0 0 .684-2.592c0-.936-.228-1.794-.684-2.574a5.046 5.046 0 0 0-1.854-1.872ZM39.302 12.323h-.81V3.071l-5.184 7.398-5.256-7.416v9.27h-.81V.479l6.066 8.568L39.302.479v11.844ZM54.841 12.323h-.81V3.071l-5.184 7.398-5.256-7.416v9.27h-.81V.479l6.066 8.568L54.841.479v11.844ZM64.319 12.107a4.396 4.396 0 0 1-1.729.342 4.438 4.438 0 0 1-1.71-.342 4.597 4.597 0 0 1-1.44-1.008 4.242 4.242 0 0 1-.971-1.44 4.749 4.749 0 0 1-.325-1.746V.623h.81v7.29c0 .504.09.984.27 1.44.193.456.457.852.793 1.188a3.8 3.8 0 0 0 1.188.81c.444.18.906.27 1.386.27.492 0 .96-.09 1.404-.27a3.8 3.8 0 0 0 1.188-.81c.335-.336.593-.732.773-1.188.192-.456.288-.936.288-1.44V.623h.81v7.29c0 .612-.114 1.194-.341 1.746a4.032 4.032 0 0 1-.954 1.44c-.42.432-.9.768-1.44 1.008ZM79.271 12.521l-8.1-9.702v9.504h-.81V.479l8.1 9.684V.623h.81v11.898ZM83.744 12.323h-.81V.623h.81v11.7ZM96.58.623v.828h-4.626v10.872h-.828V1.451h-4.644V.623H96.58ZM104.013 7.391l4.608-6.768h.972l-5.184 7.65v4.05h-.81v-4.05L98.415.623h.972l4.626 6.768Z"
        stroke="currentColor" stroke-width="6" mask="url(#a)" />
</svg>